# xmcd CD database file
#
# Track frame offsets:
#	225
#	13964
#	30820
#	40887
#	54148
#	69204
#	82798
#	96894
#	110031
#	121971
#
# Disc length: 1834 seconds
#
# Revision: 0
# Processed by: cddbd v1.5.2PL0 Copyright (c) Steve Scherf et al.
# Submitted via: CDex 1.51
#
DISCID=6f07270a
DTITLE=Nashville Strings - Nashville Strings Plays Big Harp Country Classics
DYEAR=2001
DGENRE=Country
TTITLE0=Beautiful Dreamer
TTITLE1=When Irish Eyes Are Smiling
TTITLE2=Amazing Grace
TTITLE3=Morning Has Broken
TTITLE4=Scarlet Ribbons
TTITLE5=Wayfaring Stranger
TTITLE6=I Wonder As I Wander
TTITLE7=Shenandoah
TTITLE8=Aura Lee
TTITLE9=Danny Boy
EXTD=YEAR: 2001
EXTT0=
EXTT1=
EXTT2=
EXTT3=
EXTT4=
EXTT5=
EXTT6=
EXTT7=
EXTT8=
EXTT9=
PLAYORDER=
